<svg version="1" xmlns="http://www.w3.org/2000/svg" width="448" height="448" viewBox="0 0 336.000000 336.000000"><path d="M151.8.5c-.1.1-2.5.6-5.3.9-26.4 3.5-51 12.8-73.5 27.9-9 6.1-11.8 8.5-23.6 20.2-11.1 11-18.5 20.2-25.3 31.6-7.4 12.4-15.2 30-17.6 39.6-5.2 20.7-6 26.2-6 45.3 0 18.8.5 24.7 3.4 37.8 12.4 56.6 53.2 102.9 108.2 122.6 5.2 1.8 12.2 4 15.5 4.7 3.2.7 6.6 1.4 7.4 1.6 9.3 2.1 20.8 3 35.5 2.8 9.4-.2 18.4-.6 20-.9 1.7-.4 5.5-1.1 8.5-1.7 41-7.8 77.7-30.5 102.6-63.4 15.3-20.2 27.7-47.6 30.8-67.9.4-2.1.8-4.2 1.1-4.6 1.7-2.8 2.6-35.1 1.3-47-2.8-24.9-10.6-48-23.5-69.4-14.4-23.9-39-47.2-64.4-60.9-14.8-8-36.5-15.3-51.4-17.3-2.2-.3-4.7-.8-5.5-1.1-1.6-.6-37.6-1.4-38.2-.8z"/></svg>